<?xml version="1.0" encoding="UTF-8"?>
<svg id="Layer_2" data-name="Layer 2" xmlns="http://www.w3.org/2000/svg" viewBox="0 0 444.1 435.1">
  <defs>
    <style>
      .cls-1 {
        fill: #e0be5b;
      }
    </style>
  </defs>
  <g id="Layer_1-2" data-name="Layer 1">
    <path class="cls-1" d="m424.9,209.73c13.89-11.51,21.07-25.33,17.52-43.19-3.59-18.11-16.04-27.79-32.03-32.19,1.88-6.98,3.84-13.17,5.14-19.5.79-3.85-1.37-7.18-5.39-6.84-2.45.21-5.01,2.68-6.89,4.72-1.13,1.23-.97,3.6-1.54,5.41-4.47,14.15-19.88,22.55-33.67,18.4-15.13-4.57-23.33-19.84-18.82-35.08,4.19-14.19,19.07-22.17,33.66-18.21,7.37,2,12.56,6.47,16.67,12.78,1.17,1.8,4.12,3.62,6.05,3.44,2.01-.19,5.22-2.7,5.36-4.39.24-3.05-.71-6.72-2.41-9.31-4.78-7.26-11.57-12.57-20.04-14.64-7.21-1.76-14.74-2.22-22.49-3.3.13-1.44.23-3.32.47-5.18,2.27-17.87-6.29-29.96-20.93-38.59-13.65-8.05-28.65-8.89-40.43,1.08-4.62,3.91-8.83,5.9-13.03,6.41-5.58.68-12.88-2.52-14.42-3.13-.2-.08-.28-.11-.71-.28-6.86-2.71-7.74-2.43-8.9-3.43-1.48-1.27-2.46-2.37-2.05-8.73.62-9.71-5.97-15.71-15.84-15.78-20.74-.15-41.48-.41-62.2.24-4.46.14-9.99,2.93-12.85,6.32-2.59,3.07-2.54,8.6-3.07,13.11-.39,3.35.22,6.4-4.27,7.93-1.75.59-3.54,4.35-3.34,6.48.2,2.16,2.72,4.2,4.45,6.08,1.17,1.27,3.42,1.87,4.02,3.27,3.48,8.07,9.49,11.35,18.11,10.89,5.73-.31,11.48-.06,18.04-.06-1.45,2.88-2.15,4.41-2.97,5.87-2.92,5.14-5.65,10.42-8.96,15.3-1.01,1.48-3.62,2.52-5.56,2.63-9.59.54-17.42,6.38-19.62,15.09-2.39,9.43,1.36,18.61,9.59,23.47,7.47,4.41,17.58,3,23.95-3.34,6.51-6.47,7.79-16.07,3.4-24.51-.73-1.4-1.8-3.5-1.27-4.52,3.95-7.49,8.26-14.79,12.59-22.36,1.09,1.09,1.46,1.34,1.67,1.68,3.65,5.94,7.57,11.74,10.77,17.91,1.12,2.16,1.26,5.53.44,7.85-2.41,6.74-2.8,13.2.74,19.55,4.8,8.6,14.77,12.41,23.97,9.32,9.21-3.09,14.75-12.43,13.42-22.6-1.27-9.63-9.18-16.85-18.87-17.46-2.35-.15-5.85-.15-6.79-1.57-4.49-6.78-8.28-14.03-13.18-22.61,8.24,0,15.02.76,21.55-.2,7.72-1.13,11.09-7.56,13.23-15.04,6.98,2.37,13.49,4.58,20,6.78-10.55,30.35,16.52,61.16,48.27,54.84-3.4,26.23,8.09,42.89,33.5,50.28-6.55,10.48-9.17,20.98-6.71,32.65,2.49,11.85,9.42,20.44,19.4,27.03-21.42,16.91-24.78,36.76-11.64,59.66-25.15,8.05-35.64,25.06-32.08,50.92-26.24-1.6-43.13,9.58-49.31,35.58-23.94-12.75-43.12-6.79-58.63,13.65-17.99-19.35-37.99-22.56-60.55-8.61-7.95-26.07-26.18-34.89-51.98-31.1,2.44-27.31-11.03-42.39-36.09-48.41,10.48-26.39,7.21-38.51-15.06-58.29,3.61-4.96,7.54-9.66,10.65-14.86,2.74-4.58.72-8.68-4.13-9.71-5.14-1.09-7.21,2.86-9.16,6.27-9.74,17.02-34.93,16.54-45.85-1.17-6.13-9.95-5.68-20.28.79-29.85,6.45-9.54,15.85-13.94,27.38-12.19,11.39,1.73,18.46,8.54,21.37,19.79,1.85,7.16,4.41,9,9.23,7.39,4.73-1.58,6.14-5.22,3.67-11.42-2.06-5.17-4.78-10.08-7.21-15.11,24.31-9.61,35.05-26.46,28.96-52.88,16.12.53,29.55-4.04,38.89-16.97,9.42-13.03,10.16-27.28,4.3-41.75.96-.83,1.39-1.31,1.92-1.62,3.98-2.32,9.04-3.99,5.86-10.37-3.21-6.42-7.35-2.99-11.75-1.58-2.26.72-5.82.32-7.68-1.07-13.94-10.37-32.21-11.79-46.48-3.16-16.12,9.74-23.05,25.31-19.5,43.71.27,1.38.25,2.81.4,4.78-18.82-1.93-32.29,5.67-41.17,21.74-8.94,16.18-6.92,31.51,4.45,46.27-18.53,5.25-28.47,17.41-30.79,35.01-2.4,18.18,6.09,31.67,22.01,41.39-15.09,11.65-21.05,26.24-15.95,44.41,5.04,17.92,18.22,27,35.93,31.07-10.18,16.57-8.88,31.97,2.2,46.66,11.19,14.82,26.5,18.36,44.56,14.94-1.88,18.39,4.37,32.58,19.72,42.04,15.81,9.75,31.31,7.06,46.24-2.7,9.58,36.26,56.42,44.06,76.94,12.15,1.29,1.44,2.51,2.83,3.76,4.19,10.16,11.1,22.96,14.43,37.45,12.6,4.31-.54,7.08-2.78,6.52-7.63-.54-4.73-3.45-6.44-7.94-6.14-2.53.17-5.07.46-7.59.33-14.86-.74-26.31-12.6-26.38-27.21-.07-14.09,11.53-26.77,25.37-27.72,15.43-1.06,27.63,8.99,29.65,24.22,1,7.54-1.15,14.19-5.06,20.45-2.25,3.6-1.21,6.45,1.96,8.74,3.44,2.48,6.59,1.77,8.59-1.77,3.27-5.81,6.16-11.83,9.37-18.07,14.97,7.99,30.41,8.65,45.35-1.86,15.29-10.76,18.55-26.2,16.23-43.94,18.43,2.2,33.08-3.01,43.04-18.73,9.87-15.58,9.45-30.97-1.62-46.27,17.44-5.7,29.32-16.18,32.57-33.81,3.29-17.87-4.05-32-18.42-42.73Zm-233.71-103.1c-4.27,0-7.74-3.46-7.74-7.74s3.46-7.74,7.74-7.74,7.74,3.46,7.74,7.74-3.46,7.74-7.74,7.74Zm21.24-66.07c-8.33,0-16.47.12-24.59-.15-1.06-.04-2.87-2.1-2.92-3.28-.3-6.73-.35-13.49-.02-20.22.06-1.31,2.12-3.57,3.34-3.62,7.95-.33,15.92-.17,24.2-.17v27.44Zm38.49,50.6c4.27,0,7.74,3.46,7.74,7.74s-3.46,7.74-7.74,7.74-7.74-3.46-7.74-7.74,3.46-7.74,7.74-7.74Zm2.27-54.95c-.12,1.57-2.39,4.17-3.79,4.25-7.56.42-15.15.2-23.74.2,0-8.64-.22-16.22.2-23.76.08-1.38,2.66-3.64,4.21-3.75,6.1-.43,12.25-.13,18.39-.18,3.35-.02,5.06,1.27,4.97,4.88-.15,6.12.21,12.27-.24,18.36Zm72.98,51.3c-14.6.3-27.3-12.26-27.64-27.31-.36-15.81,11.65-27.94,27.85-28.14,13.73-.16,26.74,13.01,27.1,27.43.39,15.44-11.55,27.69-27.3,28.02ZM107.61,41.6c15.3.03,27.56,12.1,27.53,27.11-.03,15.54-12.31,27.72-27.77,27.54-15.25-.17-27.36-12.36-27.24-27.41.12-15.18,12.31-27.26,27.48-27.23Zm-45.02,53.78c15.59.11,27.41,11.8,27.53,27.23.12,15.74-11.89,28.12-27.33,28.17-14.67.04-27.55-12.24-27.9-26.6-.37-15.3,12.72-28.9,27.7-28.79Zm-17.01,192.35c-15.78-.3-27.24-12.67-26.89-29.03.31-14.32,13.35-26.71,27.78-26.4,14.58.32,27.54,13.42,27.43,27.72-.13,15.96-12.44,28-28.32,27.71Zm31.89,63.39c-15.26,0-27.61-12.47-27.6-27.87,0-14.58,12.95-27.8,27.21-27.79,14.58,0,27.4,12.83,27.5,27.5.11,15.87-11.72,28.16-27.11,28.16Zm51.48,46.84c-15.48-.31-27.12-12.58-27.02-28.5.09-14.75,12.87-27.18,27.91-27.14,14.21.03,27.16,13.49,27.06,28.11-.1,15.54-12.58,27.84-27.94,27.53Zm67.28,24.17c-15.06.08-28.23-12.8-28.24-27.59,0-15.97,12.44-28.16,28.74-28.14,14.16.02,26.75,13.44,26.67,28.43-.07,14.25-12.99,27.22-27.18,27.3Zm178.76-248.18c.12-14.19,12.85-26.84,26.76-26.59,16.48.29,28.45,12.12,28.13,27.8-.3,14.49-12.51,27.35-25.69,27.05-17.53-.4-29.33-11.82-29.2-28.26Zm-45.58,215.21c-15.28-.25-27.76-12.6-27.46-27.19.33-16.06,11.99-27.59,27.72-27.45,15.04.14,27.58,12.97,27.44,28.1-.14,15.44-11.99,26.8-27.71,26.54Zm47.98-50.93c-14.49.1-27.45-12.87-27.56-27.58-.1-14.57,13.19-27.23,28.45-27.09,15.02.14,27.24,13.02,27.05,28.51-.18,14.35-12.66,26.05-27.94,26.15Zm26.25-65.07c-15-.13-27.55-12.26-27.63-26.71-.08-16.09,12.06-28.81,27.49-28.79,14.58.01,27.22,12.83,27.4,27.77.18,14.78-12.68,27.85-27.26,27.73Z"/>
  </g>
</svg>