<?xml version="1.0" encoding="UTF-8"?>
<svg id="Layer_2" data-name="Layer 2" xmlns="http://www.w3.org/2000/svg" viewBox="0 0 499.16 637.61">
  <defs>
    <style>
      .cls-1 {
        fill: #e0be5b;
      }
    </style>
  </defs>
  <g id="Layer_1-2" data-name="Layer 1">
    <g>
      <path class="cls-1" d="m328.1,0c8.25,1.79,16.69,2.97,24.73,5.47,33.13,10.28,58.5,31.51,79.57,58.25,33.57,42.61,52.15,91.96,63.79,144.31.99,4.45,2.1,8.9,2.67,13.41,1.71,13.48-6.4,23.97-19.84,24.93-34.15,2.45-68.31,4.69-102.49,6.73-12.94.77-20.91-6.19-23.43-19.92-5.34-29.01-12.57-57.49-23.69-84.85-15.71-38.67-36.14-74.18-69.27-100.94-1.6-1.29-3.3-2.46-5.09-3.79-18.29,12.98-32.84,29.34-45.19,47.7-26.81,39.85-42.56,84.15-51.64,130.96-16.19,83.46-12.35,165.89,14.28,246.86,10.68,32.49,25.6,62.95,46.82,90.03,10.28,13.12,21.9,24.88,35.75,34.78,16.91-12.23,30.66-27.32,42.36-44.32,27.61-40.12,43.42-85.01,53.06-132.35,1.07-5.28,2.03-10.58,3.28-15.82,2.79-11.7,10.44-17.66,22.47-17.03,17.41.9,34.8,2.13,52.19,3.28,15.94,1.05,31.87,2.32,47.82,3.24,16.6.96,25.5,11.83,22.27,27.96-8.56,42.72-21.8,83.82-43.69,121.73-17.95,31.09-40.21,58.36-71.29,77.48-20.45,12.58-42.62,19.28-66.6,19.38-41.72.17-83.44.18-125.16,0-37.13-.15-67.71-15.89-94-40.89-31.28-29.75-52.09-66.28-67.48-106.19C14.28,448.88,5.39,405.8,1.82,361.55c-4.48-55.42-.82-110.3,12.64-164.27,12.83-51.41,33.02-99.54,67.95-140.3C105.9,29.58,133.83,8.89,170.27,1.96c3.22-.61,6.42-1.3,9.63-1.96,49.4,0,98.8,0,148.2,0Zm-79.38,21.19c-16.74,0-32.01-.22-47.28.08-9.72.19-19.6.21-29.1,1.98-32.51,6.05-56.63,25.71-77.09,50.24-26.32,31.55-42.94,68.31-54.58,107.35-17.26,57.9-22.28,117.11-17.82,177.24,3.8,51.29,14.79,100.85,36.36,147.69,15.08,32.73,34.67,62.32,63.39,84.98,16.6,13.1,35.01,22.9,56.28,24.26,22.53,1.44,45.19.83,67.79,1.08.23,0,.46-.55.8-.99-.63-.53-1.2-1.12-1.86-1.58-30.97-21.42-53.11-50.35-70.46-83.24-24.79-47.01-38.05-97.45-44.04-150.01-7.36-64.55-4.06-128.46,12.77-191.31,17.64-65.86,46.22-125.18,104.83-167.77Zm26.46,584.82c29.01,13.4,57.51,13.52,85.85.3,29.4-13.71,50.39-36.67,67.74-63.3,21.86-33.57,35.37-70.63,44.83-109.31,1.69-6.9,2.85-13.93,4.34-21.33-35.07-2.34-69.15-4.62-103.41-6.91-14.8,76.21-39.36,146.85-99.34,200.55Zm202.18-380.86c.11-1.11.3-1.75.2-2.33-.38-2.24-.83-4.48-1.31-6.7-10.45-48.89-27.01-95.26-57.37-135.67-18.51-24.62-40.8-44.71-70.88-54.35-24.83-7.96-48.96-5.68-72.7,5.41,59.97,53.57,84.52,124.41,99.47,200.48,34.47-2.29,68.54-4.56,102.59-6.82Z"/>
      <path class="cls-1" d="m63.76,311.52c.2-57.84,10.42-121.07,36.46-181.2,13.2-30.48,30.26-58.57,53.67-82.38,2.7-2.75,7.56-5.16,11.19-4.86,8.82.73,11.4,10.62,5.23,18.08-6.74,8.14-14.08,15.84-20.26,24.38-27.18,37.58-43.33,80.06-53.16,124.94-18.55,84.71-16.2,168.85,9.62,251.89,13.12,42.21,32.5,81.11,63.38,113.53,5.13,5.39,5.22,11.67.78,16.02-4.75,4.65-10.79,4.08-16.35-1.68-28.14-29.14-47.4-63.71-61.49-101.35-20.52-54.82-28.97-111.74-29.05-177.38Z"/>
    </g>
  </g>
</svg>