<?xml version="1.0" encoding="UTF-8"?>
<svg id="Layer_2" data-name="Layer 2" xmlns="http://www.w3.org/2000/svg" viewBox="0 0 466.24 498.92">
  <defs>
    <style>
      .cls-1 {
        fill: #e0be5b;
      }
    </style>
  </defs>
  <g id="Layer_1-2" data-name="Layer 1">
    <g>
      <path class="cls-1" d="m129.25,225.79c3.31,5.33,6.65,10.77,10.07,16.16,19.6,30.89,38.26,62.44,59.06,92.5,38.24,55.29,10.99,124.28-39.41,151.47-52.05,28.09-115.04,9.36-144.77-43.9-19.61-35.14-19.05-70.25,2.67-104.54,22.37-35.32,44.83-70.59,67.23-105.9,1.26-1.98,2.37-4.05,3.72-6.38-12.5-10.3-15.76-22.92-10.31-37.82,3.02-8.26,8.34-14.53,16.69-17.4,4.58-1.57,5.54-4.14,5.39-8.45-.27-7.59-.29-15.21,0-22.8.18-4.62-1.34-6.44-6.09-7.5-31.43-7.03-52.66-35.06-51.32-67.16,1.22-29.43,22.37-55.02,51.2-61.97,28.4-6.85,58.28,6.33,72.99,32.2,14.6,25.66,10.13,57.45-10.68,78.85-9.08,9.33-19.67,15.68-32.39,18.13-4.3.83-6.15,2.31-5.98,6.87.3,8.31-.14,16.64.25,24.94.09,2.03,1.69,4.94,3.43,5.82,23.76,11.96,28.09,35.88,9.72,54.79-.48.49-.8,1.14-1.44,2.09Zm-20.75-2.28c-2.37,3.56-4.25,6.25-6,9.03-23.49,37.42-46.58,75.11-70.56,112.22-20.87,32.3-20.77,63.54.18,95.87,33.37,51.49,107.53,56.85,145.92,9.07,25.69-31.97,32.34-65.22,7.18-104.39-23.88-37.17-47.04-74.81-70.52-112.24-1.86-2.97-3.81-5.88-6.2-9.56Zm49.53-156.53c0-27.88-21.55-49.88-49.21-50.22-27.63-.34-49.95,22.09-49.96,50.18,0,27.69,22.31,49.71,50.48,49.8,27.01.08,48.68-22.07,48.69-49.77Zm-38.07,144.46c7.18-8.9,6.33-18.05-1.69-24.98-6.11-5.28-16.42-4.05-22.29,2.66-6.01,6.87-5.55,15.72,1.33,21.98,7.43-6.09,15.03-5.99,22.65.34Z"/>
      <path class="cls-1" d="m337.69,225.26c-12.88-10.6-15.87-23.52-10.11-38.57,3.05-7.96,8.39-13.87,16.45-16.74,4.02-1.43,5.54-3.47,5.37-7.73-.31-7.83-.24-15.68-.03-23.52.11-4.14-.93-6.14-5.52-7.26-26.69-6.56-43.92-23.63-50.07-50.08-6.4-27.56,2.48-51.08,25.27-67.91,22.31-16.47,46.67-17.54,71.22-4.68,23.05,12.08,37.34,40.35,33.87,65.74-3.83,28.01-24.3,51.14-50.91,56.83-4.78,1.02-6.3,2.82-6.13,7.46.29,8.07-.14,16.16.24,24.22.1,2.05,1.65,4.98,3.37,5.85,24.09,12.21,28.12,35.61,9.34,55.3-.31.33-.47.81-.99,1.75,6.17,9.77,12.48,19.79,18.83,29.79,17.19,27.08,34.37,54.16,51.6,81.21,24.68,38.73,21.9,84.86-7.29,120.56-21.72,26.55-49.61,41.49-84.02,41.42-35.85-.07-64.71-15.82-86.08-44.37-21.1-28.18-27.75-59.47-16.96-93.51,2.2-6.93,5.49-13.72,9.37-19.9,22.71-36.23,45.74-72.26,68.65-108.37,1.51-2.38,2.91-4.82,4.53-7.51Zm20.88-1.45c-1.51,1.9-2.65,3.07-3.5,4.42-25.91,41.23-52.31,82.16-77.3,123.94-6.23,10.41-9.51,23.3-11.34,35.47-3.24,21.48,6.18,40.03,18.34,56.89,16.81,23.31,39.93,36.7,68.76,37.72,39.89,1.41,68.37-17.37,87.1-52.1,14.54-26.96,13.28-53.52-2.29-79.2-19.46-32.08-39.78-63.65-59.74-95.43-6.55-10.42-13.14-20.81-20.03-31.71Zm49.27-156.49c.15-28.14-21.85-50.56-49.6-50.55-27.48.01-49.41,22.07-49.57,49.86-.16,27.74,21.73,49.62,50.15,50.13,26.77.48,48.87-21.81,49.02-49.44Zm-60.91,144.15c7.78-7.01,15.58-5.77,23.02-.23,6.7-8.29,6.24-17.44-.78-23.69-6.57-5.85-16.18-5.59-22.45.61-6.57,6.49-6.72,15.31.21,23.32Z"/>
      <path class="cls-1" d="m108.34,285.93c-2.71,4.63-4.71,8.39-7.04,11.94-3.02,4.61-7.07,6.26-12.18,3.22-5.36-3.18-5.14-7.7-2.29-12.23,4.81-7.64,9.79-15.18,15.04-22.52,3.8-5.32,9.85-5.21,13.44.43,20.55,32.26,41.39,64.34,61.12,97.09,10.08,16.74,9.29,35.26,1.62,52.85-12.69,29.1-34.48,46.98-66.99,48.69-23.5,1.24-43.33-8.15-58.34-26.06-14.6-17.41-22.86-37.35-17.72-60.63,1.41-6.37,3.77-12.84,7.1-18.42,8.89-14.88,18.6-29.27,27.86-43.93,2.98-4.72,6.4-7.94,12.22-4.9,4.82,2.52,5.23,7.22,1.31,13.46-7.82,12.48-14.97,25.47-23.75,37.24-16.09,21.54-10.16,45.25,3.1,63.3,15.61,21.25,39.03,28.86,62.94,21.32,21.51-6.79,41.04-32.1,41.03-55.05,0-7.5-1.88-15.97-5.69-22.33-16.36-27.29-33.76-53.97-50.78-80.86-.38-.59-.85-1.13-1.99-2.6Z"/>
      <path class="cls-1" d="m110.32,33.51c16.4.75,30.36,14.81,31.06,31.46.2,4.82-.82,9.13-6.84,9.75-5.91.61-8.66-2.29-9.49-7.98-1.64-11.28-5.26-15.03-16.6-16.91-5.51-.91-8.99-3.24-8.42-9.19.59-6.2,5.02-7.39,10.28-7.13Z"/>
      <path class="cls-1" d="m105.74,99.12c-15.59-.44-29.46-14.18-30.25-30.95-.22-4.77,1.13-8.49,6.63-9.12,5.74-.66,8.84,1.8,9.75,7.63,1.68,10.76,6.04,15.23,16.28,16.41,5.63.65,8.96,2.83,8.59,8.87-.4,6.42-4.76,7.46-11,7.16Z"/>
      <path class="cls-1" d="m358.5,285.47c-2.78,4.7-4.77,8.17-6.86,11.59-2.98,4.86-6.86,7.31-12.48,4.13-5.81-3.29-5.31-7.96-2.28-12.74,4.45-7.02,9.09-13.93,13.8-20.78,4.81-7,10.57-7.05,15.14.04,10.17,15.77,20.14,31.68,30.18,47.53,9.15,14.45,18.37,28.86,27.42,43.38,13.15,21.1,12.62,42.56,1.44,64.26-13.24,25.7-34.09,40.61-63.04,42.44-24.37,1.54-44.73-8.15-60.05-26.91-15.47-18.95-22.92-40.43-15.78-65.05,1.24-4.28,2.99-8.57,5.33-12.34,9.41-15.13,19.21-30.01,28.72-45.08,3.09-4.89,6.95-7.74,12.31-4.2,5.29,3.5,4.26,8.16,1.12,13.01-8.01,12.36-14.98,25.48-23.82,37.19-16.75,22.2-9.7,47.11,3.74,64.43,16.14,20.8,39.08,27.9,62.66,20.26,21.13-6.85,40.3-31.85,40.55-54.67.08-7.29-1.52-15.61-5.2-21.75-16.48-27.5-33.99-54.39-51.11-81.5-.5-.8-.92-1.65-1.8-3.26Z"/>
      <path class="cls-1" d="m359.15,33.46c16.85-.02,32.7,15.98,32.13,32.64-.16,4.61-1.72,8.37-7.34,8.68-5.6.31-8.18-2.45-9.02-7.76-1.88-11.86-5.05-15.16-17.06-17.27-5.28-.93-8.39-3.32-8.03-8.83.37-5.68,4.15-7.54,9.32-7.45Z"/>
      <path class="cls-1" d="m355.15,99.13c-14.97-.32-28.81-13.87-29.81-30.75-.28-4.75.91-8.58,6.39-9.3,5.61-.73,8.98,1.43,9.94,7.37,1.8,11.21,5.89,15.33,16.79,16.68,5.83.72,8.62,3.46,8.05,9.31-.58,6.02-4.83,6.9-11.36,6.69Z"/>
    </g>
  </g>
</svg>