<?xml version="1.0" encoding="UTF-8"?>
<svg id="Layer_2" data-name="Layer 2" xmlns="http://www.w3.org/2000/svg" viewBox="0 0 620.13 715.83">
  <defs>
    <style>
      .cls-1 {
        fill: #e0be5b;
      }
    </style>
  </defs>
  <g id="Layer_1-2" data-name="Layer 1">
    <path class="cls-1" d="m279.37,715.83c-14.39-.93-28.79-1.6-43.15-2.84-32.94-2.84-65.98-5.5-97.41-16.85-7.55-2.73-14.93-6.63-21.51-11.23-13.65-9.54-13.91-25.08.43-33.72,11.56-6.97,24.48-12.73,37.56-15.89,20.06-4.85,40.78-7.01,61.22-10.31,1.58-.25,3.16-.48,5.1-.77-1.81-16.58-7.99-31.19-16.8-44.78-1.06-1.63-3.18-2.66-4.95-3.74-67.52-41.29-115.5-99.69-149.16-170.55C22.82,346.52,6.39,284.76.23,220.21c-1.04-10.93,1.25-14.76,11.83-18.05,19.43-6.03,37.93-14.03,55.35-24.6,3.64-2.21,5.07-4.37,4.68-8.81-2.04-23.21,20.28-42.14,42.84-36.29,4.8,1.24,7.55.1,10.67-3.48,23.45-26.9,42.64-56.31,55.42-89.85,4.95-12.99,16.92-18.83,29-23.53C241.77,3.26,275.12.08,308.79,0c34.13-.08,67.94,2.89,100.26,15.18,15.31,5.82,26.88,14.45,33.25,31.11,11.91,31.13,30.74,58.38,52.91,83.3,2.88,3.24,5.43,4.01,9.56,2.99,23.38-5.78,45.18,12.49,43.39,36.35-.3,4.02.5,6.61,4.29,8.31,17.79,7.95,35.3,16.59,53.37,23.84,13.24,5.31,15.31,7.34,13.95,21.38-6.42,66.24-23.86,129.43-53.25,189.13-33,67.02-79.19,122.68-143.39,162.15-6.6,4.06-10.58,9.58-13.8,16.02-2.49,4.98-4.76,10.13-6.49,15.41-1.94,5.92-3.15,12.08-4.87,18.9,13,1.74,25.36,3.2,37.66,5.08,19.35,2.96,38.56,6.64,56.37,15.26,4.36,2.11,8.59,4.72,12.39,7.72,11.52,9.09,11.98,23.93-.38,31.76-10.83,6.86-22.89,12.67-35.2,16.13-37.9,10.64-77.04,12.9-116.16,14.72-3.93.18-7.84.71-11.75,1.07h-61.53Zm-64.96-419.17c-15.46,3.09-29.11.51-41.29-9.06-12.12-9.52-17.11-22.61-18.51-37.55-13.98,1.21-25.61-2.63-35.09-12.04-9.67-9.6-12.95-21.68-12.19-33.98-6.45-2.26-12.44-3.59-17.6-6.44-3.91-2.16-6.36-1.71-10.05.19-14.45,7.44-28.95,14.86-43.83,21.38-11.01,4.83-11.36,4.22-9.81,16.44,9.43,74.43,32.45,144.11,72.97,207.61,43.06,67.47,101.95,115.36,177.39,142.49,18.12,6.52,36.83,8.22,55.64,3.16,37.59-10.12,71.21-28.39,102.29-51.4,52.77-39.05,90.12-90.37,117.23-149.55,23.05-50.32,37.21-103.16,43.56-158.11.4-3.46.9-6.12-3.77-8.18-17.62-7.76-34.87-16.38-52.34-24.49-1.82-.84-4.43-1.21-6.25-.59-6.47,2.23-12.76,5-19.86,7.86.74,12.22-2.73,24.22-12.4,33.83-9.66,9.59-21.68,12.96-35.15,11.96-1.06,15.8-6.71,28.61-19.01,38.03-12.21,9.35-26.02,11.38-40.97,8.51-3.57,23.47-15.62,40.03-38.15,46.72-22.33,6.63-41.61-.34-57.14-17.45-30.61,35.38-88.85,21.11-95.7-29.34Zm-70.48-129.33c11.5-1,21.82,1.66,30.88,8.78,9.04,7.11,13.67,16.75,15.68,27.72,30.94-4.23,50.55,8.72,59.6,38,23.77-7.32,43.47-1.16,60,16.82,16.67-18.71,36.82-24.02,60.58-16.84,3.14-13.7,10.1-24.41,21.69-31.72,11.51-7.26,24.19-8.72,37.48-5.97,2.11-11.93,7.07-21.34,16.17-28.43,9.07-7.06,19.52-9.15,30.67-8.53,1.02-4.32,1.33-8.4,2.96-11.86,1.95-4.13.78-6.59-1.89-9.83-9.47-11.5-19.11-22.92-27.6-35.13-8.59-12.37-15.89-25.63-22.9-37.1-78.29,30.06-155.93,30.02-234.96-.24,1.07-.98.62-.74.43-.37-14.03,27-30.87,52.04-51.43,74.54-1.16,1.26-1.82,3.78-1.48,5.46.95,4.72,2.55,9.31,4.12,14.7Zm-9.33,499.85c-.08.96-.16,1.93-.25,2.89,11.06,3.19,21.97,7.04,33.2,9.44,46.7,10,94.16,12.34,141.72,12.38,48.27.04,96.42-2.3,143.81-12.45,11.16-2.39,22-6.31,32.99-9.52-.13-.89-.26-1.78-.39-2.67-27.57-12.51-57.31-14.95-87.91-18.84,1.24,6.23,2.44,11.37,3.25,16.57,1.18,7.54-2.28,13.18-8.6,14.57-6.89,1.51-13.27-1.96-14.45-9.64-2.02-13.03-3.88-26.27-3.78-39.4.08-10.96,3.06-21.91,4.94-34.02-45.9,25.29-92.16,25.25-139.58-.87,8.08,25.36,9.27,48.52,3.5,71.93-2.35,9.53-7.91,13.85-15.53,11.93-7.01-1.76-9.78-8.18-7.71-17.59.92-4.19,1.64-8.43,2.64-13.59-30.67,4.05-60.32,6.56-87.86,18.87ZM418.13,47.19c-3.91-2.65-6.67-5.25-9.95-6.59-7.73-3.16-15.53-6.39-23.6-8.42-36.1-9.06-72.78-10.09-109.65-6.69-21.13,1.95-42.05,5.32-61.51,14.47-3.83,1.8-7.2,4.57-10.78,6.89-.03.9-.07,1.8-.1,2.7,6.32,3.07,12.36,7.05,19,9.08,56.22,17.24,112.83,16.8,169.53,2.57,9.36-2.35,18.73-5.53,27.06-14.01Zm-149.87,274.65c16.57.05,29.68-12.96,29.75-29.53.07-16.54-13.01-29.71-29.53-29.75-16.52-.04-29.71,13.06-29.75,29.54-.05,16.54,13.02,29.68,29.54,29.73Zm83.69,0c16.53-.03,29.62-13.15,29.6-29.68-.02-16.5-13.15-29.6-29.68-29.6-16.5,0-29.65,13.18-29.61,29.69.03,16.56,13.13,29.61,29.69,29.59Zm-149.22-47.71c13.16,0,23.54-10.24,23.69-23.35.15-13.3-10.54-24.23-23.7-24.22-12.74,0-23.65,10.76-23.87,23.54-.23,13.14,10.6,24.04,23.88,24.03Zm214.82,0c13,0,23.65-10.42,23.87-23.35.22-12.94-10.91-24.22-23.89-24.22-12.89,0-23.53,10.58-23.68,23.53-.15,13.45,10.3,24.04,23.7,24.04Zm-268.58-83.16c-9.56.03-17.84,8.3-17.8,17.79.04,9.49,8.37,17.72,17.91,17.69,9.48-.02,17.83-8.38,17.8-17.82-.03-9.51-8.33-17.69-17.91-17.66Zm340.11,17.74c.02-9.5-8.27-17.73-17.84-17.74-9.58,0-17.86,8.2-17.87,17.71,0,9.44,8.36,17.77,17.85,17.77,9.54,0,17.85-8.24,17.86-17.74Zm-381.81-53.57c-6.51,0-11.92,5.59-11.73,12.12.18,6.25,5.51,11.47,11.71,11.48,6.52.01,11.83-5.52,11.65-12.16-.17-6.36-5.34-11.45-11.63-11.45Zm417.48,11.85c.04-6.21-5.14-11.61-11.35-11.85-6.52-.25-12.04,5.12-12.08,11.73-.03,6.32,5.01,11.64,11.26,11.88,6.41.24,12.13-5.29,12.17-11.76Z"/>
  </g>
</svg>