<?xml version="1.0" encoding="UTF-8"?>
<svg id="Layer_2" data-name="Layer 2" xmlns="http://www.w3.org/2000/svg" viewBox="0 0 433.29 540.03">
  <defs>
    <style>
      .cls-1 {
        fill: #e0be5b;
      }
    </style>
  </defs>
  <g id="Layer_1-2" data-name="Layer 1">
    <g>
      <path class="cls-1" d="m54.4,62.69c1.07-7.12-1.83-9.49-8.94-9.12-10.26.53-20.58.13-30.87.13-15.55,0-15.86.38-13.52,16.11.03.21.33.37.96,1.05h51.92c.16-3.15.08-5.69.46-8.17Z"/>
      <path class="cls-1" d="m50.92,90.8c-15.01,6.1-29.34,11.93-43.95,17.86,2.32,5.98,4.25,10.94,6.41,16.49,14.97-5.92,29.4-11.62,44.95-17.77-2.67-5.97-4.93-11.02-7.42-16.59Z"/>
      <path class="cls-1" d="m58.31,18.89C42.87,12.82,28.29,7.07,13.28,1.16c-2.23,5.55-4.02,10.03-6.21,15.49,14.99,6.41,29.23,12.5,43.99,18.82,2.55-5.83,4.74-10.85,7.25-16.58Z"/>
      <path class="cls-1" d="m353.52,220.16c-15.95-18.22-36.18-31.17-58.44-40.68-5.22-2.23-7.41-5.07-7.2-10.91.45-12.34.14-24.69.14-37.05-.02-2.06.97-19.95,5.43-25.68,8.87-11.35,17.62-22.8,26.76-33.94,4.83-5.9,4.87-11.16.6-17.39-10.79-15.7-21.33-31.54-31.69-47.51C285.77,1.86,281.58-.02,275.6,0c-19.64.08-39.3.12-58.96.12S177.34.08,157.7,0c-5.98-.02-10.17,1.86-13.51,6.99-10.36,15.97-20.9,31.81-31.69,47.51-4.27,6.23-4.23,11.49.6,17.39,9.12,11.14,17.89,22.59,26.76,33.94,4.46,5.73,5.43,23.62,5.43,25.68,0,12.36-.31,24.72.14,37.05.21,5.84-1.98,8.69-7.2,10.91-22.26,9.51-42.5,22.47-58.44,40.68-52.32,59.74-67.56,127.37-37.44,201.95,28.65,70.93,83.86,111.07,158.83,117.18,5.24.43,10.4.66,15.47.74,5.1-.08,10.25-.31,15.49-.74,74.97-6.11,130.17-46.25,158.83-117.18,30.12-74.58,14.85-142.2-37.44-201.95Zm-113.9-75.03c5.51-23.89,12.21-47.18,19.25-70.39.45-1.49,3.32-3.16,5.12-3.22,10.23-.31,20.46-.14,32.99-.14-20.01,25.75-38.68,49.76-57.35,73.75Zm30.53,20.44c-.06,1.84-2.29,4.99-3.69,5.1-7.55.5-15.14.23-24.96.23,10.07-12.56,18.63-23.23,27.17-33.92,1.67,10.25,1.88,19.43,1.49,28.59Zm-52.4-12.58h-1.96c-7.69-26.84-15.37-53.68-23.25-81.24h48.21c-7.78,27.5-15.39,54.38-23,81.24Zm63.11-126.92c6.11,9.43,11.51,17.78,17.35,26.8h-30.84c4.64-9.2,8.75-17.35,13.49-26.8Zm-15.93-8.07c-4.68,9.39-8.85,17.78-13.66,27.4-6.29-9.66-11.88-18.2-17.89-27.4h31.54Zm-48.11,6.95c6.56,9.8,12.21,18.26,18.67,27.89h-37.28c6.19-9.26,11.86-17.76,18.42-27.62.06-.1.12-.19.19-.27Zm-16.92-6.95c-6,9.2-11.59,17.74-17.89,27.4-4.81-9.61-8.97-18.01-13.66-27.4h31.54Zm-47.49,8.07c4.77,9.45,8.87,17.6,13.51,26.8h-30.86c5.86-9.02,11.26-17.37,17.35-26.8Zm-16.09,45.3c12.52,0,22.75-.17,32.99.14,1.8.06,4.66,1.73,5.12,3.22,7.01,23.21,13.74,46.5,19.25,70.39-18.67-23.99-37.34-48.01-57.35-73.75Zm55.47,99.52c-9.82,0-17.43.27-24.96-.23-1.4-.1-3.63-3.26-3.71-5.1-.37-9.16-.16-18.34,1.49-28.59,8.56,10.69,17.12,21.35,27.19,33.92Zm186.37,237.51c-22.98,62.8-83.94,114.58-161.53,113.92-77.57.66-138.53-51.12-161.51-113.92-22.09-60.38-4.62-135.91,42.58-179.89,8.81-8.21,18.32-15.8,28.3-22.53,18.24-12.27,37.86-20.24,60.76-17.72,9.84,1.09,19.91.25,29.87.21,9.98.04,20.03.89,29.89-.21,22.88-2.52,42.52,5.45,60.76,17.72,9.96,6.73,19.5,14.32,28.3,22.53,47.2,43.98,64.67,119.51,42.58,179.89Z"/>
      <path class="cls-1" d="m378.89,62.69c-1.07-7.12,1.83-9.49,8.94-9.12,10.26.53,20.58.13,30.87.13,15.55,0,15.86.38,13.52,16.11-.03.21-.33.37-.96,1.05h-51.92c-.16-3.15-.08-5.69-.46-8.17Z"/>
      <path class="cls-1" d="m382.37,90.8c15.01,6.1,29.34,11.93,43.95,17.86-2.32,5.98-4.25,10.94-6.41,16.49-14.97-5.92-29.4-11.62-44.95-17.77,2.67-5.97,4.93-11.02,7.42-16.59Z"/>
      <path class="cls-1" d="m374.98,18.89c15.44-6.08,30.02-11.82,45.03-17.73,2.23,5.55,4.02,10.03,6.21,15.49-14.99,6.41-29.23,12.5-43.99,18.82-2.55-5.83-4.74-10.85-7.25-16.58Z"/>
      <path class="cls-1" d="m217.09,206.96c-.14,0-.29.02-.45.02-.14,0-.29-.02-.43-.02-79.98.43-143.25,64.3-142.82,144.2.41,80.33,63.52,143.34,143.25,143.19,79.76.14,142.86-62.86,143.27-143.19.43-79.9-62.84-143.77-142.82-144.2Zm-.37,270.15h-.14c-69.75-.39-125.24-56.63-125.16-126.83.08-69.67,55.82-125.51,125.22-125.88,69.42.37,125.16,56.22,125.24,125.88.06,70.2-55.43,126.44-125.16,126.83Z"/>
    </g>
  </g>
</svg>